<?xml version="1.0" encoding="utf-8"?>
<!-- Generator: Adobe Illustrator 22.0.1, SVG Export Plug-In . SVG Version: 6.00 Build 0)  -->
<svg version="1.1" id="레이어_1" xmlns="http://www.w3.org/2000/svg" xmlns:xlink="http://www.w3.org/1999/xlink" x="0px"
	 y="0px" viewBox="0 0 512 512" style="enable-background:new 0 0 512 512;" xml:space="preserve">
<style type="text/css">
	.st0{fill:#FFFFFF;}
</style>
<g>
	<path d="M362,242.4c-5.9-5-13.2-7.5-21.9-7.5c-9.4,0-16.8,2.7-22,8s-8.5,12.5-9.8,21.5h63.4C371.1,254.7,367.8,247.4,362,242.4z"/>
	<path d="M205.9,268c-4.5-2-10.9-3.1-19.1-3.2h-46.9v50.1h46.2c8.3,0,14.7-1.1,19.3-3.3c8.4-4.1,12.5-11.9,12.5-23.5
		C218,278.4,213.9,271.7,205.9,268z"/>
	<path d="M206.4,229.1c5.1-3.1,7.7-8.6,7.7-16.5c0-8.8-3.4-14.5-10.2-17.4c-5.9-1.9-13.4-2.9-22.5-2.9H140v41.4h46.3
		C194.5,233.8,201.2,232.2,206.4,229.1z"/>
	<path d="M256,0C114.6,0,0,114.6,0,256s114.6,256,256,256s256-114.6,256-256S397.4,0,256,0z M298.8,168.5h81.6v23.4h-81.6V168.5z
		 M249.6,320.8c-3.6,5.8-8.1,10.8-13.5,14.8c-6.1,4.6-13.2,7.7-21.5,9.4c-8.3,1.7-17.2,2.5-26.9,2.5H102V159.7h92
		c23.2,0.3,39.6,7,49.3,20c5.8,8,8.7,17.5,8.7,28.7c0,11.5-2.9,20.7-8.8,27.7c-3.3,3.9-8.1,7.5-14.5,10.7c9.7,3.5,17,9,22,16.6
		c4.9,7.5,7.4,16.7,7.4,27.5C258.1,302,255.3,312,249.6,320.8z M410,288.3H307.4c0.6,13.9,5.5,23.7,14.7,29.3
		c5.6,3.5,12.4,5.2,20.3,5.2c8.4,0,15.2-2.1,20.4-6.4c2.9-2.3,5.4-5.5,7.6-9.6H408c-1,8.2-5.6,16.6-13.6,25.1
		c-12.6,13.5-30.3,20.2-53,20.2c-18.8,0-35.3-5.7-49.6-17.1c-14.4-11.4-21.5-29.9-21.5-55.6c0-24.1,6.5-42.5,19.4-55.4
		c13-12.8,29.7-19.3,50.3-19.3c12.3,0,23.3,2.2,33.1,6.5c9.8,4.3,17.9,11.2,24.3,20.5c5.8,8.3,9.6,17.8,11.2,28.7
		C409.8,267.1,410.1,276.3,410,288.3z"/>
</g>
<rect x="298.8" y="168.5" class="st0" width="81.6" height="23.4"/>
<path class="st0" d="M291.8,335c14.3,11.4,30.8,17.1,49.6,17.1c22.7,0,40.4-6.7,53-20.2c8-8.5,12.6-16.9,13.6-25.1h-37.6
	c-2.2,4.1-4.7,7.3-7.6,9.6c-5.2,4.3-12,6.4-20.4,6.4c-7.9,0-14.7-1.7-20.3-5.2c-9.2-5.6-14.1-15.4-14.7-29.3H410
	c0.1-12-0.2-21.2-1.4-27.9c-1.6-10.9-5.4-20.4-11.2-28.7c-6.4-9.3-14.5-16.2-24.3-20.5c-9.8-4.3-20.8-6.5-33.1-6.5
	c-20.6,0-37.3,6.5-50.3,19.3c-12.9,12.9-19.4,31.3-19.4,55.4C270.3,305.1,277.4,323.6,291.8,335z M318.1,242.9c5.2-5.3,12.6-8,22-8
	c8.7,0,16,2.5,21.9,7.5c5.8,5,9.1,12.3,9.7,22h-63.4C309.6,255.4,312.9,248.2,318.1,242.9z"/>
<path class="st0" d="M214.6,345c8.3-1.7,15.4-4.8,21.5-9.4c5.4-4,9.9-9,13.5-14.8c5.7-8.8,8.5-18.8,8.5-29.9c0-10.8-2.5-20-7.4-27.5
	c-5-7.6-12.3-13.1-22-16.6c6.4-3.2,11.2-6.8,14.5-10.7c5.9-7,8.8-16.2,8.8-27.7c0-11.2-2.9-20.7-8.7-28.7c-9.7-13-26.1-19.7-49.3-20
	h-92v187.8h85.7C197.4,347.5,206.3,346.7,214.6,345z M140,192.3h41.4c9.1,0,16.6,1,22.5,2.9c6.8,2.9,10.2,8.6,10.2,17.4
	c0,7.9-2.6,13.4-7.7,16.5c-5.2,3.1-11.9,4.7-20.1,4.6H140V192.3z M139.9,314.9v-50.1h46.9c8.2,0.1,14.6,1.2,19.1,3.2
	c8,3.7,12.1,10.4,12,20.1c0,11.6-4.1,19.4-12.5,23.5c-4.6,2.2-11,3.3-19.3,3.3H139.9z"/>
</svg>
