<?xml version="1.0" encoding="utf-8"?>
<!-- Generator: Adobe Illustrator 22.0.1, SVG Export Plug-In . SVG Version: 6.00 Build 0)  -->
<svg version="1.1" id="Capa_1" xmlns="http://www.w3.org/2000/svg" xmlns:xlink="http://www.w3.org/1999/xlink" x="0px" y="0px"
	 viewBox="0 0 512 512" style="enable-background:new 0 0 512 512;" xml:space="preserve">
<style type="text/css">
	.st0{fill:#FFFFFF;}
</style>
<path d="M512,256C512,114.6,397.4,0,256,0S0,114.6,0,256s114.6,256,256,256c1.5,0,3,0,4.5-0.1V312.7h-55v-64.1h55v-47.2
	c0-54.7,33.4-84.5,82.2-84.5c23.4,0,43.5,1.7,49.3,2.5v57.2h-33.6c-26.5,0-31.7,12.6-31.7,31.1v40.8h63.5l-8.3,64.1h-55.2v189.5
	C433.7,471.4,512,372.9,512,256z"/>
<g>
	<path class="st0" d="M357.6,176.6h33.6v-57.2c-5.8-0.8-25.9-2.5-49.3-2.5c-48.8,0-82.2,29.8-82.2,84.5v47.2h-55v64.1h55v199.2
		c-0.6,0-1.3,0.1-1.9,0.1c0.7,0,1.4,0,2.1,0c22.9,0,45.1-3.3,66-9.3l0-0.8V312.6h55.2l8.3-64.1h-63.5v-40.8
		C325.9,189.2,331.1,176.6,357.6,176.6z"/>
	<path class="st0" d="M325.9,502.1v-0.2"/>
</g>
</svg>
