<?xml version="1.0" encoding="iso-8859-1"?>
<!-- Generator: Adobe Illustrator 21.0.0, SVG Export Plug-In . SVG Version: 6.00 Build 0)  -->
<svg xmlns="http://www.w3.org/2000/svg" xmlns:xlink="http://www.w3.org/1999/xlink" version="1.1" id="Capa_1" x="0px" y="0px" viewBox="0 0 512 512" style="enable-background:new 0 0 512 512;" xml:space="preserve" width="512" height="512">
<g>
	<path d="M453.537,58.546C415.777,20.792,365.572,0,312.17,0c-53.401,0-103.606,20.792-141.367,58.546   c-67.058,67.046-76.425,170.26-28.107,247.414L13.106,435.527c-17.475,17.471-17.475,45.898,0,63.37   C21.843,507.633,33.319,512,44.796,512s22.953-4.367,31.69-13.103l129.592-129.568c32.317,20.231,69.204,30.35,106.093,30.35   c51.196,0,102.392-19.484,141.367-58.452C531.487,263.292,531.487,136.482,453.537,58.546z M55.269,477.683   c-5.774,5.774-15.17,5.773-20.945,0c-5.775-5.774-5.775-15.169,0-20.942L160.72,330.369c3.204,3.712,6.562,7.337,10.084,10.859   c3.523,3.522,7.148,6.879,10.861,10.083L55.269,477.683z M432.32,320.014c-66.25,66.236-174.047,66.238-240.298,0   c-66.25-66.238-66.25-174.016,0-240.254c32.093-32.087,74.763-49.759,120.149-49.759c45.387,0,88.056,17.672,120.149,49.759   C498.57,145.998,498.57,253.776,432.32,320.014z"/>
	<path d="M395.815,185.886H224.831c-8.286,0-15.003,6.716-15.003,15.001c0,8.285,6.717,15.001,15.003,15.001h170.984   c8.286,0,15.003-6.716,15.003-15.001C410.818,192.602,404.101,185.886,395.815,185.886z"/>
	<path d="M395.815,132.333H224.831c-8.286,0-15.003,6.716-15.003,15.001c0,8.285,6.717,15.001,15.003,15.001h170.984   c8.286,0,15.003-6.716,15.003-15.001C410.818,139.05,404.101,132.333,395.815,132.333z"/>
	<path d="M329.456,239.439H224.831c-8.286,0-15.003,6.716-15.003,15.001s6.717,15.001,15.003,15.001h104.625   c8.286,0,15.003-6.716,15.003-15.001S337.742,239.439,329.456,239.439z"/>
	<path d="M395.815,239.439h-13.448c-8.286,0-15.003,6.716-15.003,15.001s6.717,15.001,15.003,15.001h13.448   c8.286,0,15.003-6.716,15.003-15.001S404.101,239.439,395.815,239.439z"/>
</g>















</svg>
