<?xml version="1.0" encoding="utf-8"?>
<!-- Generator: Adobe Illustrator 25.2.1, SVG Export Plug-In . SVG Version: 6.00 Build 0)  -->
<svg version="1.1" id="Capa_1" xmlns="http://www.w3.org/2000/svg" xmlns:xlink="http://www.w3.org/1999/xlink" x="0px" y="0px"
	 viewBox="0 0 512 512" style="enable-background:new 0 0 512 512;" xml:space="preserve">
<style type="text/css">
	.st0{fill:#FFFFFF;}
</style>
<g>
	<path class="st0" d="M118.7,219.3c-0.1-0.2-0.2-0.3-0.3-0.5c-2.8-4.9-9.1-6.3-13.8-3.2c-0.1,0-0.1,0.1-0.2,0.1
		c-4.4,2.9-5.6,8.8-2.8,13.2c0.1,0.1,0.2,0.3,0.3,0.5c2.9,4.6,9,6,13.6,3c0.1,0,0.1-0.1,0.2-0.1
		C119.9,229.5,121.3,223.8,118.7,219.3z"/>
	<path class="st0" d="M287.5,468c-3.4-3.4-8.7-3.9-12.7-1.1c-17.7,12.2-37.8,20.2-59.3,23.4c-7.1,1-14.3,1.6-21.4,1.6
		c-38,0-73.8-14.7-100.7-41.4c-26.8-26.7-41.6-62.2-41.7-99.9c0-33.8,12.5-67,34.6-92.5c3.3-3.8,3.3-9.4-0.1-13.1l-0.1-0.1
		c-4-4.4-11-4.4-14.9,0.1c-25.3,29.2-39.6,67.1-39.5,105.7c0,43.1,16.9,83.6,47.6,114.1s71.4,47.3,114.8,47.3
		c8.1,0,16.4-0.6,24.4-1.8c24.6-3.7,47.7-12.8,67.9-26.8c5.1-3.5,5.6-10.7,1.3-15.1C287.6,468.1,287.6,468,287.5,468L287.5,468z"/>
	<path class="st0" d="M304.9,439.2c-0.3,0.3-0.5,0.6-0.8,1c-3.5,4.2-2.8,10.5,1.5,13.9c0.1,0.1,0.2,0.2,0.3,0.2
		c4.2,3.4,10.3,2.6,13.7-1.5c0.3-0.3,0.5-0.6,0.8-1c3.5-4.4,2.7-10.8-1.8-14.1c0,0-0.1-0.1-0.2-0.1
		C314.2,434.4,308.2,435.1,304.9,439.2z"/>
	<path class="st0" d="M479.9,174.2l-0.1-38.9c-0.1-10.7-9.9-10.8-10-10.8c-62,0-113-50.5-113.5-112.6c0-4.7-3.5-9.6-10-9.9h-79.2
		c-5.5,0-10,4.5-10,10v218.6L257,350.4c0,26.9-17.3,50.7-43,59.2c-7.4,2.4-15.1,3.5-22.9,3.1c-32.9-1.6-59.1-28.6-59.6-61.4
		c-0.2-16.8,6.1-32.6,17.9-44.6c11.9-12.1,27.9-18.8,44.9-18.8c6.7,0,13.4,1.1,19.8,3.2c3.8,1.2,8,0.1,10.7-2.9
		c1.6-1.9,2.4-4.4,2.4-6.8v-80.7c0-4.9-3.6-9.2-8.5-9.9c-8.1-1.2-16.3-1.8-24.4-1.8c-17.8,0-35,2.8-51.3,8.2
		c-5.3,1.8-7.8,7.7-5.3,12.7v0.1c0.3,0.5,0.6,1.1,0.8,1.6c2,4,6.7,5.9,10.9,4.5c14.2-4.7,29.3-7.1,44.8-7.1c4.3,0,8.6,0.2,12.9,0.6
		V269c-4.3-0.7-8.6-1-12.9-1c-22.4,0-43.4,8.8-59.1,24.7c-15.6,15.8-24,36.7-23.7,58.9c0.6,43.3,35.2,78.9,78.6,81
		c10.3,0.5,20.4-0.9,30.2-4.1c34-11.2,56.8-42.6,56.8-78.2l0.1-119.8V22h26.1c12-0.1,25.2-0.2,33.6-0.1c2.6,31.8,16.2,61.3,39.1,84
		c22.8,22.6,52.4,36,84.1,38.4c0,15,0.1,44.1,0.2,59.6c-22.5-1.1-44.4-6.1-65.2-14.9c-15.3-6.4-29.6-14.8-42.7-24.9
		c-3-2.3-7.1-2.7-10.5-1.1s-5.6,5.2-5.6,9l0.4,179.1c-0.1,19.9-4.3,39.1-12.2,56.8c-2,4.4-0.4,9.6,3.6,12.2c0.1,0,0.1,0.1,0.2,0.1
		c5.1,3.3,12,1.3,14.5-4.2c9-20.2,13.8-42.1,13.9-64.9L356,191c9.9,6.2,20.2,11.7,31,16.2c26.3,11.1,54.2,16.8,82.9,16.8
		c2.7,0,5.3-1,7.2-2.9s2.9-4.4,2.9-7.1L479.9,174.2z"/>
</g>
</svg>
