<?xml version="1.0" encoding="utf-8"?>
<!-- Generator: Adobe Illustrator 22.0.1, SVG Export Plug-In . SVG Version: 6.00 Build 0)  -->
<svg version="1.1" id="레이어_1" xmlns="http://www.w3.org/2000/svg" xmlns:xlink="http://www.w3.org/1999/xlink" x="0px"
	 y="0px" viewBox="0 0 512 512" style="enable-background:new 0 0 512 512;" xml:space="preserve">
<style type="text/css">
	.st0{fill:#FFFFFF;}
</style>
<path d="M260,0C118.6,0,4,114.6,4,256s114.6,256,256,256s256-114.6,256-256S401.4,0,260,0z M376.9,199.6c0.1,2.5,0.2,5.1,0.2,7.6
	c0,77.6-59.1,167.2-167.2,167.2h0h0c-33.2,0-64.1-9.7-90.1-26.4c4.6,0.5,9.3,0.8,14,0.8c27.5,0,52.9-9.4,73-25.2
	c-25.7-0.5-47.4-17.5-54.9-40.8c3.6,0.7,7.3,1.1,11,1.1c5.4,0,10.6-0.7,15.5-2.1c-26.9-5.4-47.1-29.1-47.1-57.6c0-0.3,0-0.5,0-0.8
	c7.9,4.4,17,7.1,26.6,7.3c-15.8-10.5-26.1-28.5-26.1-48.9c0-10.8,2.9-20.9,8-29.5c29,35.6,72.3,58.9,121.1,61.4
	c-1-4.3-1.5-8.8-1.5-13.4c0-32.4,26.3-58.8,58.8-58.8c16.9,0,32.2,7.1,42.9,18.6c13.4-2.6,26-7.5,37.3-14.3
	c-4.4,13.7-13.7,25.2-25.8,32.5c11.9-1.4,23.2-4.6,33.7-9.3C398.3,181,388.4,191.3,376.9,199.6z"/>
<path class="st0" d="M119.8,348c26,16.7,56.9,26.4,90.1,26.4c108.1,0,167.2-89.5,167.2-167.2c0-2.5-0.1-5.1-0.2-7.6
	c11.5-8.3,21.4-18.6,29.3-30.4c-10.5,4.7-21.9,7.8-33.7,9.3c12.1-7.3,21.4-18.8,25.8-32.5c-11.4,6.7-23.9,11.6-37.3,14.3
	c-10.7-11.4-26-18.6-42.9-18.6c-32.4,0-58.8,26.3-58.8,58.8c0,4.6,0.5,9.1,1.5,13.4c-48.8-2.5-92.1-25.8-121.1-61.4
	c-5,8.7-8,18.8-8,29.5c0,20.4,10.4,38.4,26.1,48.9c-9.6-0.3-18.7-2.9-26.6-7.3c0,0.2,0,0.5,0,0.8c0,28.5,20.3,52.2,47.1,57.6
	c-4.9,1.3-10.1,2.1-15.5,2.1c-3.8,0-7.5-0.4-11-1.1c7.5,23.3,29.2,40.3,54.9,40.8c-20.1,15.8-45.4,25.2-73,25.2
	C129.1,348.8,124.4,348.5,119.8,348z"/>
</svg>
