<?xml version="1.0" encoding="utf-8"?>
<!-- Generator: Adobe Illustrator 25.2.1, SVG Export Plug-In . SVG Version: 6.00 Build 0)  -->
<svg version="1.1" id="레이어_1" xmlns="http://www.w3.org/2000/svg" xmlns:xlink="http://www.w3.org/1999/xlink" x="0px"
	 y="0px" viewBox="0 0 512 512" style="enable-background:new 0 0 512 512;" xml:space="preserve">
<style type="text/css">
	.st0{fill:#FFFFFF;}
</style>
<path class="st0" d="M329.8,417.5c-23.5,0.8-48.3,1.2-73.8,1.2c-73.7,0-139-3.3-174.6-8.9c-38-5.9-53.1-23.6-57.7-67.6
	c-5-48.1-5-123.6,0-171.7c4.6-44,19.7-61.7,57.7-67.6c6.2-1,13.4-1.9,21.5-2.7c5.5-0.6,9.5-5.5,8.9-11c-0.6-5.5-5.5-9.5-11-8.9
	c-8.5,0.9-16.1,1.8-22.6,2.9c-23.7,3.7-40.3,11.7-52.3,25C13.8,121.9,6.7,141,3.9,168.4c-5.2,49.3-5.2,126.6,0,175.9
	c2.9,27.4,9.9,46.5,22.2,60.3c12,13.4,28.6,21.3,52.3,25c36.5,5.7,102.9,9.1,177.6,9.1c25.7,0,50.8-0.4,74.5-1.2
	c5.5-0.2,9.8-4.8,9.7-10.3S335.4,417.3,329.8,417.5z"/>
<path class="st0" d="M508.1,168.4c-2.9-27.4-9.9-46.5-22.2-60.3c-12-13.4-28.6-21.3-52.3-25C397.1,77.4,330.7,74,256,74
	c-25.7,0-50.8,0.4-74.5,1.2c-5.5,0.2-9.8,4.8-9.7,10.3c0.2,5.5,4.8,9.9,10.3,9.7c23.5-0.8,48.3-1.2,73.8-1.2
	c73.7,0,139,3.3,174.6,8.9c38,5.9,53.1,23.6,57.7,67.6c5,48.1,5,123.6,0,171.7c-4.6,44-19.7,61.7-57.7,67.6
	c-6.2,1-13.4,1.9-21.5,2.7c-5.5,0.6-9.5,5.5-8.9,11c0.5,5.1,4.9,9,9.9,9c0.3,0,0.7,0,1-0.1c8.5-0.9,16.1-1.8,22.6-2.9
	c23.7-3.7,40.3-11.6,52.3-25c12.3-13.8,19.4-32.9,22.2-60.3C513.3,295,513.3,217.7,508.1,168.4z"/>
<path class="st0" d="M338.4,247.8l-123.8-76.5c-3.1-1.9-7-2-10.1-0.2c-3.2,1.8-5.1,5.1-5.1,8.7v152.9c0,3.6,2,7,5.1,8.7
	c1.5,0.8,3.2,1.3,4.9,1.3c1.8,0,3.6-0.5,5.3-1.5l123.8-76.5c2.9-1.8,4.7-5,4.7-8.5C343.2,252.9,341.4,249.7,338.4,247.8z
	 M219.4,314.9V197.8l94.7,58.5L219.4,314.9z"/>
<path class="st0" d="M141.8,97c0.2,0,0.4,0,0.7,0c5.5-0.4,9.7-5.1,9.3-10.6s-5.1-9.7-10.6-9.3h0c-5.5,0.4-9.7,5.1-9.3,10.6
	C132.2,93,136.6,97,141.8,97z"/>
<path class="st0" d="M369.5,415.7c-5.5,0.4-9.7,5.1-9.3,10.6c0.4,5.3,4.8,9.3,10,9.3c0.2,0,0.4,0,0.7,0h0c5.5-0.4,9.7-5.1,9.3-10.6
	S375,415.3,369.5,415.7z"/>
</svg>
